<svg xmlns="http://www.w3.org/2000/svg" viewBox="30 55 700 310">
  <!-- Lime liegt hinter der Platte: die ausgestanzten Buchstaben zeigen es.
       In Pauls Artboard war hier ein weisses Rechteck — daher wirkte das O gefuellt. -->
  <rect x="100" y="116" width="556" height="183" fill="#c2e67e"/>
  <path fill="#284824" fill-rule="evenodd" d="M699.5,65.5 C710,66 720.5,70 714,91.5 C701.6422,139.9806 694.706242,167.564517 688.038123,194.06245 L687.625959,195.700286 C687.557307,195.973085 687.488672,196.245813 687.420048,196.51849 L686.579952,199.856359 L686.168027,201.492763 C679.436191,228.233868 672.4852,255.7597 660,304.5 C642.5,351.5 602.5,351.5 586,351.5 C345.5,352 308,352 56.5,351.5 C41.5,351.5 38,340.5 39.5,334.5 C57.8333333,259.833333 76.1666667,185.833333 94.5,112.5 C98.0718991,97.6482327 106.905232,85.1482327 121,75 C129.333333,69 141.833333,66.1666667 158.5,66.5 C503.82,65.8533333 683.855233,65.5203 698.6057,65.5009 L699.5,65.5 Z M174,131.5 C147,131.5 137.834124,153.497627 135.5,160.5 C132.935,168.195 127.7708,187.5864 122.692698,207.099638 L122.158595,209.153612 C118.51265,223.18535 114.96,237.07 112.5,246.5 C103,280.5 122,284 139,284 C156,284 169,274.5 176,254 C180,238.666667 184.833333,220.333333 190.5,199 L158,199 L153,219 L163.5,219 C160.5,231.666667 158,241.5 156,248.5 C153,259 148.5,263.5 140.5,263.5 C132.5,263.5 131.5,255.5 133,251 C133.893,246.0885 142.76049,213.266285 152.125189,178.881867 L152.723539,176.68525 L152.723539,176.68525 L153.322808,174.485911 C153.522669,173.752514 153.722611,173.018917 153.922562,172.285375 L154.553933,169.969401 C154.86955,168.8118 155.185,167.655 155.5,166.5 C158,157.5 164.5,150.5 171,151 C177.5,151.5 179.5,155.5 178,162.5 C177,166.833333 175.5,172.833333 173.5,180.5 L195,180.5 C196.666667,174.166667 198,169 199,165 C203.091098,150.079523 201,131.5 174,131.5 Z M624,131.5 C597,131.5 587.834124,153.497627 585.5,160.5 C582.935,168.195 577.7708,187.5864 572.692698,207.099638 L572.158595,209.153612 C568.51265,223.18535 564.96,237.07 562.5,246.5 C553,280.5 572,284 589,284 C606,284 619,274.5 626,254 C630,238.666667 634.833333,220.333333 640.5,199 L608,199 L603,219 L613.5,219 C610.5,231.666667 608,241.5 606,248.5 C603,259 598.5,263.5 590.5,263.5 C582.5,263.5 581.5,255.5 583,251 C583.893,246.0885 592.76049,213.266285 602.125189,178.881867 L602.723539,176.68525 L602.723539,176.68525 L603.322808,174.485911 C603.522669,173.752514 603.722611,173.018917 603.922562,172.285375 L604.553933,169.969401 C604.86955,168.8118 605.185,167.655 605.5,166.5 C608,157.5 614.5,150.5 621,151 C627.5,151.5 629.5,155.5 628,162.5 C627,166.833333 625.5,172.833333 623.5,180.5 L645,180.5 C646.666667,174.166667 648,169 649,165 C653.091098,150.079523 651,131.5 624,131.5 Z M467,131 C450.536361,130.023564 430.5,138.5 424.5,162 C421.596774,173.370968 417.522893,188.019771 413.411248,202.830956 L412.177755,207.276067 C408.206816,221.594823 404.306452,235.774194 401.5,247 C395.5,271 406.5,282 422.5,283 C438.5,284 458,279 466,255.5 C469.897436,244.051282 474.150888,227.974359 478.240024,211.836578 L478.240024,211.836578 L478.884236,209.288668 C479.562636,206.600079 480.235711,203.916477 480.901052,201.259007 L481.398569,199.271134 C484.539855,186.716492 487.493056,174.870726 490,166 C496.5,143 483.463639,131.976436 467,131 Z M273.5,132.5 L220,132.5 L180.5,282.5 L236.5,282.5 L241.5,261 L208.5,261 L220,217.5 L249,217.5 L254,197 L225,197 L236.5,153.5 L268.5,153.5 L273.5,132.5 Z M349,132.5 L285,132.5 L280,152.5 L300,152.5 L266,282.5 L288,282.5 L322.5,152.5 L343.5,152.5 L349,132.5 Z M379.5,132.5 L357.5,132.5 L318.5,282.5 L339.5,282.5 L358.5,211 L368.5,282.5 L391,282.5 L380.5,203 L424,132.5 L401.5,132.5 L363,198 L379.5,132.5 Z M536,132.5 L512,132.5 L472.5,282.5 L493,282.5 L517.5,182.5 L519.5,282.5 L540.5,282.5 L579.5,132.5 L559,132.5 L537.5,217.5 L536,132.5 Z M446,163.5 C449.5,153 456,149.5 463,150.5 C470,151.5 469.5,159 468.5,164 C468.01,166.45 463.55835,183.7862 458.792169,201.89072 L458.5,203 L457.914048,205.22144 L457.914048,205.22144 L457.314699,207.489112 C457.264757,207.677872 457.214822,207.866558 457.164898,208.055154 L456.865516,209.185517 C452.527292,225.556363 448.332766,241.001702 447,245 L447,245 L446.790597,245.626196 L446.58059,246.24862 L446.58059,246.24862 L446.364075,246.882135 C443.538315,255.08599 440.226163,262 430,262 C421.31,262 421.9815,254.5108 423.139798,248.160583 L423.228562,247.680618 C423.5117,246.16855 423.81,244.735 424,243.5 C424.52,240.12 429.6368,221.4624 434.850944,202.853472 L435.452752,200.707376 C440.066,184.269 444.62,168.33 446,163.5 Z"/>
</svg>
